<?xml version="1.0" encoding="UTF-8"?>
<svg id="Camada_1" data-name="Camada 1" xmlns="http://www.w3.org/2000/svg" viewBox="0 0 1080 1080">
  <defs>
    <style>
      .cls-1 {
        fill: #a6a4a4;
      }

      .cls-1, .cls-2, .cls-3 {
        stroke-width: 0px;
      }

      .cls-4 {
        letter-spacing: .12em;
      }

      .cls-5 {
        letter-spacing: .12em;
      }

      .cls-6 {
        letter-spacing: .1em;
      }

      .cls-3 {
        fill: #fcc838;
      }

      .cls-7 {
        font-family: Dubai-Regular, Dubai;
        font-size: 79.56px;
      }
    </style>
  </defs>
  <g>
    <polygon class="cls-2" points="156.2 574.6 156.2 415.27 98.03 415.27 98.03 373.11 278.89 373.11 269.02 415.27 204.82 415.27 204.82 574.6 156.2 574.6"/>
    <path class="cls-2" d="m378.42,574.6v-142.2h46.65v18.27c11.24-18.55,27.82-19.39,52.83-19.39v44.96c-3.93-.84-9.56-1.69-15.46-1.69-24.45,0-36.25,10.68-36.25,36.25v28.63c0,19.42-15.74,35.17-35.17,35.17h-12.61Z"/>
    <path class="cls-2" d="m490.18,574.6v-201.49h47.77v76.44c9.27-10.96,24.45-20.23,45.53-20.23,44.12,0,71.94,39.9,69.97,78.4-1.69,34.57-23.89,67.73-69.41,69.97-25.85,1.12-41.59-15.17-47.21-21.08v17.99h-46.65Zm115.22-69.13c0-19.11-12.37-35.69-33.72-35.69s-34,16.58-34,35.69,12.65,35.41,34,35.41,33.72-16.3,33.72-35.41"/>
    <path class="cls-2" d="m777.73,526.27l44.4,14.05c-15.17,25.01-44.96,37.09-74.47,37.09-46.09,0-85.43-29.22-85.43-73.91,0-32.32,23.61-74.19,82.06-74.19s82.34,40.75,82.34,71.66c0,4.78-.56,8.99-1.41,13.49h-115.5c5.34,12.93,18.83,22.2,38.22,22.2,10.12,0,21.92-2.53,29.79-10.4m0-40.75c-5.34-10.96-17.14-18.55-33.44-18.55s-27.54,7.59-33.16,18.55h66.6Z"/>
    <path class="cls-2" d="m981.97,432.13h-58.48l-29.19,35.97s-27.93,34.56-28.69,35.67l-57.62,70.83h57.07l29.24-35.67,10.84,13.36c11.45,14.11,28.65,22.3,46.81,22.3h29.15l-57.87-70.83,58.73-71.64Z"/>
    <path class="cls-1" d="m857.61,494c.74-1.13,28.67-35.69,28.67-35.69l-3.4-4.14c-11.45-13.95-28.55-22.04-46.6-22.04h-28.82l50.15,61.88Z"/>
    <path class="cls-2" d="m316.96,574.6v-14.33c-14.33,14.33-30.35,16.3-43.28,16.3-34.57,0-56.2-14.9-56.2-67.17v-77.28h47.49v72.22c0,25.01,5.34,33.16,22.76,33.16,19.95,0,27.82-8.15,27.82-32.04v-73.35h48.05v142.48h-46.65Z"/>
    <polygon class="cls-3" points="257.22 550.15 276.96 497.15 249.84 497.15 267.04 423.7 323.52 423.7 299.92 467.87 346.9 467.87 257.22 550.15"/>
  </g>
  <text class="cls-7" transform="translate(274.74 666.55) scale(1.01 1)"><tspan class="cls-4" x="0" y="0">Suppleme</tspan><tspan class="cls-6" x="393.36" y="0">n</tspan><tspan class="cls-5" x="442.37" y="0">ts</tspan></text>
</svg>