<?xml version="1.0" encoding="UTF-8"?>
<svg id="Camada_2" data-name="Camada 2" xmlns="http://www.w3.org/2000/svg" viewBox="0 0 883.94 333.78">
  <defs>
    <style>
      .cls-1, .cls-2, .cls-3, .cls-4 {
        fill: #fff;
      }

      .cls-2 {
        letter-spacing: .12em;
      }

      .cls-2, .cls-5, .cls-3, .cls-4 {
        isolation: isolate;
      }

      .cls-2, .cls-3, .cls-4 {
        font-family: Dubai-Regular, Dubai;
        font-size: 79.56px;
      }

      .cls-3 {
        letter-spacing: .12em;
      }

      .cls-6 {
        fill: #a6a4a4;
      }

      .cls-4 {
        letter-spacing: .1em;
      }

      .cls-7 {
        fill: #eec343;
      }
    </style>
  </defs>
  <g id="Camada_3" data-name="Camada 3">
    <g>
      <polygon class="cls-1" points="58.17 201.49 58.17 42.16 0 42.16 0 0 180.86 0 170.99 42.16 106.79 42.16 106.79 201.49 58.17 201.49"/>
      <path class="cls-1" d="M280.39,201.49V59.29h46.65v18.27c11.24-18.55,27.82-19.39,52.83-19.39v44.96c-3.93-.84-9.56-1.69-15.46-1.69-24.45,0-36.25,10.68-36.25,36.25v28.63c0,19.42-15.74,35.17-35.17,35.17h-12.61,0Z"/>
      <path class="cls-1" d="M392.15,201.49V0h47.77v76.44c9.27-10.96,24.45-20.23,45.53-20.23,44.12,0,71.94,39.9,69.97,78.4-1.69,34.57-23.89,67.73-69.41,69.97-25.85,1.12-41.59-15.17-47.21-21.08v17.99h-46.65,0ZM507.37,132.36c0-19.11-12.37-35.69-33.72-35.69s-34,16.58-34,35.69,12.65,35.41,34,35.41,33.72-16.3,33.72-35.41"/>
      <path class="cls-1" d="M679.7,153.16l44.4,14.05c-15.17,25.01-44.96,37.09-74.47,37.09-46.09,0-85.43-29.22-85.43-73.91,0-32.32,23.61-74.19,82.06-74.19s82.34,40.75,82.34,71.66c0,4.78-.56,8.99-1.41,13.49h-115.5c5.34,12.93,18.83,22.2,38.22,22.2,10.12,0,21.92-2.53,29.79-10.4M679.7,112.4c-5.34-10.96-17.14-18.55-33.44-18.55s-27.54,7.59-33.16,18.55h66.6Z"/>
      <path class="cls-1" d="M883.94,59.02h-58.48l-29.19,35.97s-27.93,34.56-28.69,35.67l-57.62,70.83h57.07l29.24-35.67,10.84,13.36c11.45,14.11,28.65,22.3,46.81,22.3h29.15l-57.87-70.83,58.73-71.64h0Z"/>
      <path class="cls-6" d="M759.58,120.89c.74-1.13,28.67-35.69,28.67-35.69l-3.4-4.14c-11.45-13.95-28.55-22.04-46.6-22.04h-28.82l50.15,61.88h0Z"/>
      <path class="cls-1" d="M218.93,201.49v-14.33c-14.33,14.33-30.35,16.3-43.28,16.3-34.57,0-56.2-14.9-56.2-67.17V59.01h47.49v72.22c0,25.01,5.34,33.16,22.76,33.16,19.95,0,27.82-8.15,27.82-32.04V59h48.05v142.48h-46.65,0Z"/>
      <polygon class="cls-7" points="159.19 177.04 178.93 124.04 151.81 124.04 169.01 50.59 225.49 50.59 201.89 94.76 248.87 94.76 159.19 177.04"/>
      <g class="cls-5">
        <text class="cls-2" transform="translate(176.71 293.44)"><tspan x="0" y="0">Suppleme</tspan></text>
        <text class="cls-4" transform="translate(574 293.44)"><tspan x="0" y="0">n</tspan></text>
        <text class="cls-3" transform="translate(623.5 293.44)"><tspan x="0" y="0">ts</tspan></text>
      </g>
    </g>
  </g>
</svg>